<svg width="33" height="33" viewBox="0 0 33 33" fill="none" xmlns="http://www.w3.org/2000/svg">
<g clip-path="url(#clip0_110_943)">
<path d="M31.2304 5.60588C30.8436 5.14173 30.3594 4.76843 29.8121 4.5125C29.2648 4.25656 28.6679 4.12426 28.0637 4.125H5.83275L5.775 3.64237C5.65682 2.6392 5.17465 1.71426 4.41992 1.04291C3.66519 0.371557 2.69036 0.000469966 1.68025 0L1.375 0C1.01033 0 0.660591 0.144866 0.402728 0.402728C0.144866 0.660591 0 1.01033 0 1.375C0 1.73967 0.144866 2.08941 0.402728 2.34727C0.660591 2.60513 1.01033 2.75 1.375 2.75H1.68025C2.01703 2.75004 2.34209 2.87369 2.59376 3.09748C2.84543 3.32128 3.00622 3.62965 3.04562 3.96412L4.93762 20.0516C5.13405 21.7247 5.93791 23.2674 7.19662 24.387C8.45534 25.5066 10.0813 26.125 11.7659 26.125H26.125C26.4897 26.125 26.8394 25.9801 27.0973 25.7223C27.3551 25.4644 27.5 25.1147 27.5 24.75C27.5 24.3853 27.3551 24.0356 27.0973 23.7777C26.8394 23.5199 26.4897 23.375 26.125 23.375H11.7659C10.9148 23.3726 10.0853 23.107 9.39116 22.6147C8.69697 22.1224 8.17206 21.4274 7.88837 20.625H24.2784C25.8903 20.6251 27.451 20.0588 28.6878 19.0251C29.9245 17.9914 30.7588 16.556 31.0447 14.9696L32.1241 8.98287C32.2319 8.38888 32.2077 7.77847 32.0532 7.19488C31.8987 6.61129 31.6178 6.06881 31.2304 5.60588ZM29.425 8.49475L28.3442 14.4815C28.1726 15.4344 27.6711 16.2965 26.9278 16.9169C26.1845 17.5373 25.2466 17.8765 24.2784 17.875H7.45113L6.15725 6.875H28.0637C28.2657 6.87379 28.4655 6.9171 28.6489 7.00185C28.8322 7.0866 28.9946 7.2107 29.1246 7.36534C29.2546 7.51997 29.3488 7.70134 29.4008 7.89654C29.4527 8.09174 29.461 8.29599 29.425 8.49475Z" fill="white"/>
<path d="M9.625 33C11.1438 33 12.375 31.7688 12.375 30.25C12.375 28.7312 11.1438 27.5 9.625 27.5C8.10622 27.5 6.875 28.7312 6.875 30.25C6.875 31.7688 8.10622 33 9.625 33Z" fill="white"/>
<path d="M23.375 33C24.8938 33 26.125 31.7688 26.125 30.25C26.125 28.7312 24.8938 27.5 23.375 27.5C21.8562 27.5 20.625 28.7312 20.625 30.25C20.625 31.7688 21.8562 33 23.375 33Z" fill="white"/>
</g>
<defs>
<clipPath id="clip0_110_943">
<rect width="33" height="33" fill="white"/>
</clipPath>
</defs>
</svg>
