<svg width="25" height="33" viewBox="0 0 25 33" fill="none" xmlns="http://www.w3.org/2000/svg">
<path d="M24.875 33H22.125V26.0659C22.1239 24.9879 21.6952 23.9543 20.9329 23.1921C20.1707 22.4298 19.1371 22.0011 18.0591 22H6.94087C5.86287 22.0011 4.82934 22.4298 4.06707 23.1921C3.30481 23.9543 2.87609 24.9879 2.875 26.0659V33H0.125V26.0659C0.127183 24.2589 0.845983 22.5265 2.12373 21.2487C3.40149 19.971 5.13386 19.2522 6.94087 19.25H18.0591C19.8661 19.2522 21.5985 19.971 22.8763 21.2487C24.154 22.5265 24.8728 24.2589 24.875 26.0659V33Z" fill="white"/>
<path d="M12.5 16.5C10.8683 16.5 9.27325 16.0161 7.91655 15.1096C6.55984 14.2031 5.50242 12.9146 4.878 11.4071C4.25357 9.89965 4.0902 8.24085 4.40853 6.64051C4.72685 5.04017 5.51259 3.57016 6.66637 2.41637C7.82016 1.26259 9.29017 0.476853 10.8905 0.158525C12.4909 -0.159803 14.1497 0.00357461 15.6571 0.627998C17.1646 1.25242 18.4531 2.30984 19.3596 3.66655C20.2661 5.02325 20.75 6.61831 20.75 8.25C20.7478 10.4374 19.8779 12.5345 18.3312 14.0812C16.7845 15.6279 14.6874 16.4978 12.5 16.5ZM12.5 2.75C11.4122 2.75 10.3488 3.07257 9.44437 3.67692C8.5399 4.28127 7.83495 5.14025 7.41867 6.14525C7.00238 7.15024 6.89347 8.25611 7.10568 9.323C7.3179 10.3899 7.84173 11.3699 8.61092 12.1391C9.38011 12.9083 10.3601 13.4321 11.427 13.6443C12.4939 13.8565 13.5998 13.7476 14.6048 13.3313C15.6098 12.9151 16.4687 12.2101 17.0731 11.3056C17.6774 10.4012 18 9.3378 18 8.25C18 6.79131 17.4205 5.39237 16.3891 4.36092C15.3576 3.32947 13.9587 2.75 12.5 2.75Z" fill="white"/>
</svg>
