<svg width="42" height="42" viewBox="0 0 42 42" fill="none" xmlns="http://www.w3.org/2000/svg">
<path d="M22.75 1.74987C22.75 1.28574 22.9343 0.840617 23.2625 0.512428C23.5907 0.18424 24.0358 -0.000134994 24.5 -0.000134994C29.1397 0.0049603 33.5879 1.85034 36.8687 5.13112C40.1495 8.41191 41.9949 12.8601 42 17.4999C42 17.964 41.8156 18.4091 41.4874 18.7373C41.1592 19.0655 40.7141 19.2499 40.25 19.2499C39.7858 19.2499 39.3407 19.0655 39.0125 18.7373C38.6843 18.4091 38.5 17.964 38.5 17.4999C38.4958 13.7881 37.0195 10.2296 34.3949 7.60497C31.7703 4.98037 28.2117 3.50403 24.5 3.49987C24.0358 3.49987 23.5907 3.31549 23.2625 2.9873C22.9343 2.65911 22.75 2.21399 22.75 1.74987ZM24.5 10.4999C26.3565 10.4999 28.137 11.2374 29.4497 12.5501C30.7625 13.8629 31.5 15.6434 31.5 17.4999C31.5 17.964 31.6843 18.4091 32.0125 18.7373C32.3407 19.0655 32.7858 19.2499 33.25 19.2499C33.7141 19.2499 34.1592 19.0655 34.4874 18.7373C34.8156 18.4091 35 17.964 35 17.4999C34.9972 14.7159 33.8901 12.0468 31.9215 10.0783C29.953 8.10979 27.2839 7.00265 24.5 6.99987C24.0358 6.99987 23.5907 7.18424 23.2625 7.51243C22.9343 7.84062 22.75 8.28574 22.75 8.74987C22.75 9.21399 22.9343 9.65911 23.2625 9.9873C23.5907 10.3155 24.0358 10.4999 24.5 10.4999ZM40.4127 29.2931C41.4269 30.3101 41.9964 31.6877 41.9964 33.1239C41.9964 34.5601 41.4269 35.9377 40.4127 36.9546L38.8202 38.7904C24.4877 52.5121 -10.3898 17.6434 3.12022 3.26537L5.13273 1.51537C6.15082 0.52955 7.51611 -0.0157991 8.93321 -0.00269902C10.3503 0.0104011 11.7053 0.580897 12.705 1.58537C12.7592 1.63962 16.002 5.85187 16.002 5.85187C16.9642 6.86271 17.4998 8.20549 17.4975 9.60107C17.4952 10.9966 16.9552 12.3377 15.9897 13.3454L13.9632 15.8934C15.0847 18.6183 16.7336 21.0948 18.8151 23.1805C20.8966 25.2663 23.3698 26.9201 26.0925 28.0471L28.6562 26.0084C29.6641 25.0436 31.0048 24.5042 32.4 24.5023C33.7952 24.5003 35.1374 25.0359 36.148 25.9979C36.148 25.9979 40.3585 29.2389 40.4127 29.2931ZM38.0047 31.8376C38.0047 31.8376 33.817 28.6159 33.7627 28.5616C33.4022 28.2041 32.9151 28.0036 32.4073 28.0036C31.8996 28.0036 31.4125 28.2041 31.052 28.5616C31.0047 28.6106 27.475 31.4229 27.475 31.4229C27.2371 31.6122 26.954 31.7363 26.6536 31.7829C26.3532 31.8296 26.0458 31.7972 25.7617 31.6889C22.2345 30.3756 19.0308 28.3197 16.3674 25.6603C13.7041 23.0009 11.6434 19.8001 10.325 16.2749C10.2081 15.9869 10.17 15.673 10.2146 15.3655C10.2592 15.0579 10.3848 14.7678 10.5787 14.5249C10.5787 14.5249 13.391 10.9934 13.4382 10.9479C13.7957 10.5873 13.9963 10.1002 13.9963 9.59249C13.9963 9.08479 13.7957 8.59764 13.4382 8.23711C13.384 8.18462 10.1622 3.99337 10.1622 3.99337C9.7963 3.66525 9.31873 3.48953 8.82741 3.50222C8.33609 3.51491 7.86822 3.71505 7.51972 4.06162L5.50723 5.81162C-4.36628 17.6836 25.858 46.2314 36.2617 36.3999L37.856 34.5624C38.2296 34.2163 38.454 33.7386 38.4817 33.2301C38.5095 32.7216 38.3384 32.2223 38.0047 31.8376Z" fill="black"/>
</svg>
