<svg width="16" height="16" viewBox="0 0 16 16" fill="none" xmlns="http://www.w3.org/2000/svg">
<g clip-path="url(#clip0_103_508)">
<path d="M0.968405 12.2338C0.495583 12.7065 0.229879 13.3476 0.229736 14.0162L0.229736 15.3101H1.52367C2.19224 15.31 2.83337 15.0443 3.30605 14.5715L11.7157 6.16186L9.37801 3.82422L0.968405 12.2338Z" fill="black"/>
<path d="M14.8187 0.719982C14.6653 0.566346 14.483 0.444465 14.2824 0.361309C14.0818 0.278153 13.8668 0.235352 13.6496 0.235352C13.4324 0.235352 13.2174 0.278153 13.0168 0.361309C12.8162 0.444465 12.6339 0.566346 12.4805 0.719982L10.2708 2.93031L12.6084 5.26796L14.8187 3.05826C14.9724 2.90478 15.0942 2.72253 15.1774 2.52192C15.2606 2.32131 15.3034 2.10628 15.3034 1.88912C15.3034 1.67196 15.2606 1.45693 15.1774 1.25632C15.0942 1.05571 14.9724 0.873457 14.8187 0.719982Z" fill="black"/>
</g>
<defs>
<clipPath id="clip0_103_508">
<rect width="15.1263" height="15.1263" fill="white" transform="translate(0.230957 0.181641)"/>
</clipPath>
</defs>
</svg>
