<svg width="42" height="42" viewBox="0 0 42 42" fill="none" xmlns="http://www.w3.org/2000/svg">
<path d="M40.4618 15.8709L27.188 2.59544C25.5452 0.957424 23.3199 0.0375977 21 0.0375977C18.6801 0.0375977 16.4548 0.957424 14.812 2.59544L1.53827 15.8709C1.04902 16.3571 0.661118 16.9355 0.397066 17.5726C0.133013 18.2098 -0.0019432 18.893 2.11391e-05 19.5827V36.7624C2.11391e-05 38.1548 0.553145 39.4902 1.53771 40.4748C2.52228 41.4593 3.85764 42.0124 5.25002 42.0124H36.75C38.1424 42.0124 39.4778 41.4593 40.4623 40.4748C41.4469 39.4902 42 38.1548 42 36.7624V19.5827C42.002 18.893 41.867 18.2098 41.603 17.5726C41.3389 16.9355 40.951 16.3571 40.4618 15.8709ZM26.25 38.5124H15.75V31.6279C15.75 30.2356 16.3031 28.9002 17.2877 27.9156C18.2723 26.9311 19.6076 26.3779 21 26.3779C22.3924 26.3779 23.7278 26.9311 24.7123 27.9156C25.6969 28.9002 26.25 30.2356 26.25 31.6279V38.5124ZM38.5 36.7624C38.5 37.2266 38.3157 37.6717 37.9875 37.9999C37.6593 38.3281 37.2142 38.5124 36.75 38.5124H29.75V31.6279C29.75 29.3073 28.8282 27.0817 27.1872 25.4408C25.5463 23.7998 23.3207 22.8779 21 22.8779C18.6794 22.8779 16.4538 23.7998 14.8128 25.4408C13.1719 27.0817 12.25 29.3073 12.25 31.6279V38.5124H5.25002C4.78589 38.5124 4.34077 38.3281 4.01258 37.9999C3.6844 37.6717 3.50002 37.2266 3.50002 36.7624V19.5827C3.50164 19.1189 3.68585 18.6744 4.01277 18.3454L17.2865 5.07519C18.273 4.09332 19.6082 3.54209 21 3.54209C22.3919 3.54209 23.727 4.09332 24.7135 5.07519L37.9873 18.3507C38.3129 18.6784 38.497 19.1207 38.5 19.5827V36.7624Z" fill="black"/>
</svg>
