<svg width="35" height="35" viewBox="0 0 35 35" fill="none" xmlns="http://www.w3.org/2000/svg">
<path d="M17.5 3.15292C22.1725 3.15292 22.7267 3.17042 24.5715 3.255C26.479 3.3425 28.4433 3.77708 29.8331 5.16688C31.236 6.56979 31.6575 8.51521 31.745 10.4285C31.8296 12.2733 31.8471 12.8275 31.8471 17.5C31.8471 22.1725 31.8296 22.7267 31.745 24.5715C31.659 26.4688 31.2142 28.4521 29.8331 29.8331C28.4302 31.236 26.4863 31.6575 24.5715 31.745C22.7267 31.8296 22.1725 31.8471 17.5 31.8471C12.8275 31.8471 12.2733 31.8296 10.4285 31.745C8.54583 31.659 6.53625 31.204 5.16688 29.8331C3.77125 28.4375 3.3425 26.4731 3.255 24.5715C3.17042 22.7267 3.15292 22.1725 3.15292 17.5C3.15292 12.8275 3.17042 12.2733 3.255 10.4285C3.34104 8.53854 3.79021 6.54354 5.16688 5.16688C6.56688 3.76688 8.51958 3.3425 10.4285 3.255C12.2733 3.17042 12.8275 3.15292 17.5 3.15292ZM17.5 0C12.7473 0 12.1508 0.0204167 10.2842 0.105C7.57896 0.228958 4.89271 0.981458 2.93708 2.93708C0.974167 4.9 0.228958 7.58042 0.105 10.2842C0.0204167 12.1508 0 12.7473 0 17.5C0 22.2527 0.0204167 22.8492 0.105 24.7158C0.228958 27.4181 0.984375 30.1117 2.93708 32.0629C4.89854 34.0244 7.58333 34.771 10.2842 34.895C12.1508 34.9796 12.7473 35 17.5 35C22.2527 35 22.8492 34.9796 24.7158 34.895C27.4196 34.771 30.1088 34.0171 32.0629 32.0629C34.0273 30.0985 34.771 27.4196 34.895 24.7158C34.9796 22.8492 35 22.2527 35 17.5C35 12.7473 34.9796 12.1508 34.895 10.2842C34.771 7.57896 34.0171 4.89125 32.0629 2.93708C30.1044 0.978542 27.4123 0.2275 24.7158 0.105C22.8492 0.0204167 22.2527 0 17.5 0Z" fill="#454545"/>
<path d="M17.4999 8.51367C12.5372 8.51367 8.51367 12.5372 8.51367 17.4999C8.51367 22.4626 12.5372 26.4862 17.4999 26.4862C22.4626 26.4862 26.4862 22.4626 26.4862 17.4999C26.4862 12.5372 22.4626 8.51367 17.4999 8.51367ZM17.4999 23.3333C14.2785 23.3333 11.6666 20.7214 11.6666 17.4999C11.6666 14.2785 14.2785 11.6666 17.4999 11.6666C20.7214 11.6666 23.3333 14.2785 23.3333 17.4999C23.3333 20.7214 20.7214 23.3333 17.4999 23.3333Z" fill="#454545"/>
<path d="M26.8422 10.2576C28.002 10.2576 28.9422 9.31742 28.9422 8.15762C28.9422 6.99782 28.002 6.05762 26.8422 6.05762C25.6824 6.05762 24.7422 6.99782 24.7422 8.15762C24.7422 9.31742 25.6824 10.2576 26.8422 10.2576Z" fill="#454545"/>
</svg>
