<svg width="24" height="32" viewBox="0 0 24 32" fill="none" xmlns="http://www.w3.org/2000/svg">
<path d="M23.4474 32.0003H20.8421V25.2763C20.8411 24.231 20.4349 23.2288 19.7128 22.4896C18.9906 21.7504 18.0115 21.3347 16.9902 21.3337H6.45714C5.43588 21.3347 4.45674 21.7504 3.7346 22.4896C3.01245 23.2288 2.6063 24.231 2.60526 25.2763V32.0003H0V25.2763C0.00206835 23.5241 0.683037 21.8442 1.89354 20.6052C3.10404 19.3661 4.74524 18.6691 6.45714 18.667H16.9902C18.7021 18.6691 20.3433 19.3661 21.5538 20.6052C22.7643 21.8442 23.4453 23.5241 23.4474 25.2763V32.0003Z" fill="black"/>
<path d="M11.7235 16C10.1777 16 8.66659 15.5308 7.38129 14.6518C6.09599 13.7727 5.09422 12.5233 4.50266 11.0615C3.9111 9.59966 3.75632 7.99113 4.0579 6.43928C4.35947 4.88743 5.10385 3.46197 6.19691 2.34315C7.28997 1.22433 8.68261 0.462403 10.1987 0.153721C11.7148 -0.15496 13.2863 0.00346629 14.7145 0.608967C16.1426 1.21447 17.3633 2.23985 18.2221 3.55544C19.0809 4.87104 19.5393 6.41775 19.5393 8C19.5372 10.1211 18.7131 12.1547 17.2478 13.6545C15.7825 15.1544 13.7957 15.9979 11.7235 16ZM11.7235 2.66667C10.693 2.66667 9.68556 2.97947 8.82869 3.5655C7.97183 4.15153 7.30398 4.98449 6.90961 5.95903C6.51524 6.93357 6.41205 8.00592 6.6131 9.04049C6.81415 10.0751 7.3104 11.0254 8.03911 11.7712C8.76781 12.5171 9.69624 13.0251 10.707 13.2309C11.7177 13.4366 12.7654 13.331 13.7175 12.9274C14.6696 12.5237 15.4834 11.8401 16.0559 10.963C16.6284 10.086 16.934 9.05484 16.934 8C16.934 6.58552 16.3851 5.22896 15.4079 4.22877C14.4307 3.22857 13.1054 2.66667 11.7235 2.66667Z" fill="black"/>
</svg>
