<svg width="35" height="35" viewBox="0 0 35 35" fill="none" xmlns="http://www.w3.org/2000/svg">
<path d="M32.5442 2.45583C30.0883 0 26.1348 0 18.2292 0H16.7708C8.86521 0 4.91167 0 2.45583 2.45583C0 4.91167 0 8.86521 0 16.7708V18.2292C0 26.1348 0 30.0869 2.45583 32.5442C4.91167 35.0015 8.86521 35 16.7708 35H18.2292C26.1348 35 30.0869 35 32.5442 32.5442C35 30.0883 35 26.1348 35 18.2292V16.7708C35 8.86521 35 4.91167 32.5442 2.45583ZM28.4419 24.7917H25.8898C24.9171 24.7917 24.6313 24.0158 22.9002 22.2848C21.385 20.825 20.736 20.6354 20.3583 20.6354C19.8435 20.6354 19.6904 20.7812 19.6904 21.5104V23.7985C19.6904 24.4256 19.4906 24.7917 17.8675 24.7917C15.1638 24.7917 12.1917 23.1496 10.0815 20.1221C6.91688 15.6873 6.05208 12.3346 6.05208 11.6594C6.05208 11.2802 6.19792 10.9375 6.92708 10.9375H9.48063C10.1325 10.9375 10.3775 11.2233 10.6225 11.9292C11.8708 15.5648 13.9767 18.7425 14.8415 18.7425C15.1652 18.7425 15.314 18.5923 15.314 17.7698V14.0117C15.2192 12.2821 14.299 12.1392 14.299 11.5238C14.299 11.2394 14.5425 10.9375 14.9479 10.9375H18.9598C19.5008 10.9375 19.689 11.2262 19.689 11.8752V16.9312C19.689 17.4708 19.9237 17.6604 20.0856 17.6604C20.4108 17.6604 20.6806 17.4708 21.2756 16.8758C23.1146 14.821 24.4125 11.6579 24.4125 11.6579C24.5758 11.2788 24.8733 10.936 25.5238 10.936H28.0758C28.8473 10.936 29.0106 11.3327 28.8473 11.8738C28.5221 13.3613 25.4129 17.7406 25.4129 17.7406C25.1417 18.1737 25.0338 18.3896 25.4129 18.8767C25.6842 19.2558 26.5752 20.0127 27.1702 20.7156C28.2669 21.9494 29.0938 22.9892 29.3242 23.7067C29.5371 24.4271 29.171 24.7917 28.4419 24.7917Z" fill="#454545"/>
</svg>
