<svg width="24" height="24" viewBox="0 0 24 24" fill="none" xmlns="http://www.w3.org/2000/svg">
<path d="M22.316 1.684C20.632 0 17.921 0 12.5 0H11.5C6.079 0 3.368 0 1.684 1.684C0 3.368 0 6.079 0 11.5V12.5C0 17.921 0 20.631 1.684 22.316C3.368 24.001 6.079 24 11.5 24H12.5C17.921 24 20.631 24 22.316 22.316C24 20.632 24 17.921 24 12.5V11.5C24 6.079 24 3.368 22.316 1.684ZM19.503 17H17.753C17.086 17 16.89 16.468 15.703 15.281C14.664 14.28 14.219 14.15 13.96 14.15C13.607 14.15 13.502 14.25 13.502 14.75V16.319C13.502 16.749 13.365 17 12.252 17C10.398 17 8.36 15.874 6.913 13.798C4.743 10.757 4.15 8.458 4.15 7.995C4.15 7.735 4.25 7.5 4.75 7.5H6.501C6.948 7.5 7.116 7.696 7.284 8.18C8.14 10.673 9.584 12.852 10.177 12.852C10.399 12.852 10.501 12.749 10.501 12.185V9.608C10.436 8.422 9.805 8.324 9.805 7.902C9.805 7.707 9.972 7.5 10.25 7.5H13.001C13.372 7.5 13.501 7.698 13.501 8.143V11.61C13.501 11.98 13.662 12.11 13.773 12.11C13.996 12.11 14.181 11.98 14.589 11.572C15.85 10.163 16.74 7.994 16.74 7.994C16.852 7.734 17.056 7.499 17.502 7.499H19.252C19.781 7.499 19.893 7.771 19.781 8.142C19.558 9.162 17.426 12.165 17.426 12.165C17.24 12.462 17.166 12.61 17.426 12.944C17.612 13.204 18.223 13.723 18.631 14.205C19.383 15.051 19.95 15.764 20.108 16.256C20.254 16.75 20.003 17 19.503 17Z" fill="#DADADA"/>
</svg>
